<svg id="Glyph" height="512" viewBox="0 0 24 24" width="512" xmlns="http://www.w3.org/2000/svg"><path d="m17.7247 20.25c-.1286 1.3979-1.2938 2.5-2.7247 2.5h-10c-1.5166 0-2.75-1.2334-2.75-2.75v-12c0-1.431 1.1021-2.5961 2.5-2.7247v10.7247c0 2.3433 1.9062 4.25 4.25 4.25zm4.0253-13.5v9.25c0 1.5166-1.2334 2.75-2.75 2.75h-10c-1.5166 0-2.75-1.2334-2.75-2.75v-12c0-1.5166 1.2334-2.75 2.75-2.75h7.25v4.75c0 .4141.3359.75.75.75zm-4 7.25c0-.4141-.3359-.75-.75-.75h-6c-.4141 0-.75.3359-.75.75s.3359.75.75.75h6c.4141 0 .75-.3359.75-.75zm0-4c0-.4141-.3359-.75-.75-.75h-6c-.4141 0-.75.3359-.75.75s.3359.75.75.75h6c.4141 0 .75-.3359.75-.75zm0-8.3105v3.5605h3.5605z"/></svg>