<svg id="Layer_2" height="512" viewBox="0 0 512 512" width="512" xmlns="http://www.w3.org/2000/svg" data-name="Layer 2"><g id="Icon"><path id="_97" d="m362 0h-212c-82.8 0-150 67.2-150 150v212c0 82.8 67.2 150 150 150h212c82.8 0 150-67.2 150-150v-212c0-82.8-67.2-150-150-150zm-165.79 224h27.79v-81c0-8.28 6.72-15 15-15h34c8.28 0 15 6.72 15 15v81h27.79c13.36 0 20.06 16.16 10.61 25.61l-59.79 59.79c-5.86 5.86-15.36 5.86-21.21 0l-59.79-59.79c-9.45-9.45-2.76-25.61 10.61-25.61zm155.79 145c0 8.28-6.72 15-15 15h-162c-8.28 0-15-6.72-15-15v-18c0-8.28 6.72-15 15-15h162c8.28 0 15 6.72 15 15z" data-name="97"/></g></svg>