<svg id="Layer_1" viewBox="0 0 128 128" xmlns="http://www.w3.org/2000/svg" data-name="Layer 1"><path d="m40.98694 82a40.70166 40.70166 0 0 0 24.13318-7.849l4.74288 4.74219-.7002.70013a3.99957 3.99957 0 0 0 -.30542 5.31427l32.98662 41.57825a4.00075 4.00075 0 0 0 2.90472 1.50757c.07666.00439.15338.00659.22968.00659a4.0007 4.0007 0 0 0 2.82867-1.17157l19.02118-19.01837a3.99961 3.99961 0 0 0 -.34265-5.96222l-41.58448-32.98163a4.0008 4.0008 0 0 0 -5.315.30536l-.70032.70013-4.74286-4.74219a41.00254 41.00254 0 0 0 -33.156-65.12951 41 41 0 0 0 -28.99573 69.99139 40.741 40.741 0 0 0 28.99573 12.00861zm83.01245 22.98163-19.02118 19.01837-3.23-4.07141 18.17922-18.17659zm-41.58447-32.98163 34.35779 27.25-17.527 17.52441-27.25413-34.35266zm-6.35767.69983-3.36572 3.36523-4.44427-4.4436c.59027-.52661 1.17151-1.06628 1.73547-1.63007s1.10358-1.145 1.63031-1.73517zm-61.23718-57.86283a37 37 0 1 1 0 52.32593 36.89253 36.89253 0 0 1 0-52.32593z"/><path d="m86.2442 84.56152 15.00226 12a2 2 0 1 0 2.49939-3.123l-15.0022-12a2 2 0 1 0 -2.49945 3.123z"/><path d="m40.98694 74a33 33 0 0 0 23.33806-56.33453 33.0025 33.0025 0 1 0 -46.67607 46.66906 32.79163 32.79163 0 0 0 23.33801 9.66547zm-20.50916-53.5061a29 29 0 1 1 0 41.01221 28.91578 28.91578 0 0 1 0-41.01221z"/><path d="m28.257 25.272a18.02642 18.02642 0 0 1 25.4599 0 1.99994 1.99994 0 1 0 2.82855-2.82812 22.02953 22.02953 0 0 0 -31.117 0 1.99994 1.99994 0 0 0 2.82855 2.82812z"/></svg>