<svg id="Layer_1" viewBox="0 0 512 512" xmlns="http://www.w3.org/2000/svg" data-name="Layer 1"><path d="m476.522 303.558-48.978-84.806c-11.062-19.174-35.664-25.774-54.856-14.703-4.959 2.867-9.162 6.685-12.424 11.209-5.361-2.905-11.298-4.615-17.367-5.031v-150.172c0-28.715-23.361-52.077-52.077-52.077h-218.577c-28.715 0-52.076 23.361-52.076 52.077v366.09c0 28.715 23.361 52.077 52.076 52.077h181.168l17.438 10.066c18.173 10.489 37.674 15.734 57.168 15.733 19.494 0 38.982-5.245 57.126-15.733l49.545-28.599c26.382-15.219 45.27-39.871 53.185-69.414 7.914-29.542 3.884-60.338-11.351-86.717zm-404.279-265.58h218.577c12.174 0 22.077 9.903 22.077 22.077v159.99c-3.981 3.343-7.246 7.315-9.689 11.702-1.396-.536-2.829-1.002-4.295-1.395-10.934-2.933-22.322-1.441-32.053 4.188-3.691 2.128-6.938 4.732-9.712 7.692l-28.632-49.604c-11.659-20.15-37.553-27.087-57.743-15.449-20.15 11.659-27.086 37.553-15.455 57.731l71.767 124.286-1.1-.635c-13.319-7.695-28.701-9.771-43.313-5.852-14.257 3.825-26.408 12.884-34.496 25.638h-98.009v-318.292c0-12.173 9.903-22.077 22.076-22.077zm0 410.244c-12.173 0-22.076-9.904-22.076-22.077v-17.796h94.907c2.545 6.068 7.009 11.382 13.127 14.914l43.239 24.96h-129.197zm386.651-65.71c-5.84 21.799-19.761 39.979-39.2 51.193l-49.558 28.606c-26.761 15.471-57.483 15.468-84.289-.005l-112.648-65.025c-.542-.313-.742-1.109-.426-1.66 4.04-7.012 10.316-11.961 17.673-13.935 1.929-.517 4.273-.918 6.912-.918 4.008 0 8.693.925 13.619 3.771l49.605 28.658c5.878 3.396 13.306 2.419 18.109-2.38 4.802-4.801 5.78-12.229 2.385-18.109l-99.773-172.789c-3.377-5.86-1.361-13.384 4.474-16.76 5.857-3.377 13.384-1.363 16.765 4.481l80.134 138.81c2.778 4.814 7.821 7.505 13.006 7.505 2.544 0 5.122-.647 7.483-2.01 7.175-4.141 9.636-13.314 5.495-20.489 0 0-30.948-53.597-31.291-54.192-.002-.003-.004-.005-.005-.008l-.003-.005c-1.615-2.81-2.036-6.108-1.185-9.287.852-3.178 2.863-5.817 5.688-7.445 2.802-1.622 6.1-2.044 9.276-1.192 3.188.855 5.843 2.879 7.456 5.666l31.305 54.218c2.778 4.813 7.82 7.503 13.005 7.503 2.544 0 5.124-.648 7.485-2.012 7.175-4.142 9.634-13.315 5.492-20.49l-26.476-45.864c-.025-.043-.055-.081-.08-.124-3.163-5.816-1.139-13.142 4.635-16.47 5.843-3.38 13.357-1.36 16.751 4.506l7.313 12.642s.003.005.004.007l19.066 33.032c2.778 4.813 7.82 7.504 13.005 7.504 2.544 0 5.123-.648 7.484-2.011 7.175-4.141 9.635-13.315 5.493-20.49l-19.091-33.076c-1.333-2.313-1.679-5.038-.974-7.673.706-2.642 2.371-4.834 4.676-6.167 4.85-2.798 11.071-1.131 13.871 3.721l48.981 84.812c11.226 19.438 14.191 42.15 8.351 63.95zm-293-312.338c0-8.284 6.716-15 15-15h1.304c8.284 0 15 6.716 15 15s-6.716 15-15 15h-1.304c-8.284 0-15-6.716-15-15z"/></svg>