<svg id="Layer_1" enable-background="new 0 0 512 512" height="512" viewBox="0 0 512 512" width="512" xmlns="http://www.w3.org/2000/svg"><g><g><path d="m256 511.814c-10.188 0-19.688-3.938-26.875-11.063l-218-218.031c-7.125-7.124-11.125-16.687-11.125-26.874s3.938-19.75 11.125-26.906l218-218c14.25-14.313 39.375-14.375 53.75.031l218 217.969c7.188 7.156 11.125 16.688 11.125 26.906 0 10.188-3.938 19.719-11.188 26.906l-217.937 217.969c-7.187 7.156-16.75 11.093-26.875 11.093zm0-479.968c-.938 0-2.75.219-4.25 1.719l-218 218c-1.5 1.5-1.75 3.313-1.75 4.25s.25 2.75 1.75 4.25l218 218.031c3.063 3.031 5.563 2.938 8.563-.031l217.937-217.969c1.5-1.531 1.75-3.313 1.75-4.25 0-.969-.25-2.75-1.75-4.25l-218-218c-1.5-1.532-3.312-1.75-4.25-1.75z"/></g><g><path d="m256 313.689c-16.813 0-30.5 13.688-30.5 30.438 0 16.813 13.688 30.5 30.5 30.5 16.875 0 30.5-13.688 30.5-30.5 0-16.75-13.625-30.438-30.5-30.438z"/><path d="m297.5 151.877c-5.188-4.563-11.438-8.25-18.625-10.813-13.75-4.938-32.938-4.938-46.625-.125-6.875 2.5-13 5.938-18 10.25-5.188 4.375-9.25 9.625-12.063 15.5-2.875 5.938-4.313 12.313-4.313 18.75 0 4.438.563 8.438 1.75 12.188 1.188 3.688 3 6.938 5.063 9.875 2.375 3.188 5.25 5.625 8.688 7.375 9 4.875 20.5 3 27.313-4.188 4.125-4.438 6.313-10.125 6.313-16.375 0-2.813-.688-5.813-2.188-9.313l-2.75-6.313c-1.5-2.875 1.75-5.938 3.188-6.813 2.75-1.875 7.063-2.188 10.313-.75 1.875.875 3.375 2 4.75 3.688 1.563 1.688 2.813 3.875 3.75 6.563 1 2.875 1.5 6.188 1.5 9.813 0 3.688-.5 7.563-1.563 11.188-.688 1.75-7.938 16.563-13.25 27.438-6.563 13.25-10.563 21.438-11.313 23.25-2.938 7.063-2.563 30.438-2.5 35l.125 4.938 33.438-.313.125-4.875c.25-9.625 1.125-21.563 2.063-23.75 2.813-6.063 9.188-14.75 19-25.813 4.063-4.563 7.625-9.125 10.5-13.438 2.688-4.125 5-8.25 6.875-12.25 3.438-7.938 5.125-15.813 5.125-23.625 0-7.125-1.438-14-4.313-20.25-2.751-6.5-6.938-12.187-12.376-16.812z"/></g></g></svg>